<?xml version="1.0" encoding="UTF-8" standalone="no"?>
<!-- Generator: Adobe Illustrator 19.2.1, SVG Export Plug-In . SVG Version: 6.00 Build 0)  -->

<svg
   version="1.1"
   id="layer"
   x="0px"
   y="0px"
   viewBox="0 0 1275.704 139.705"
   xml:space="preserve"
   sodipodi:docname="logo.svg"
   width="1275.704"
   height="139.705"
   inkscape:version="1.4.3 (0d15f75042, 2025-12-25)"
   xmlns:inkscape="http://www.inkscape.org/namespaces/inkscape"
   xmlns:sodipodi="http://sodipodi.sourceforge.net/DTD/sodipodi-0.dtd"
   xmlns="http://www.w3.org/2000/svg"
   xmlns:svg="http://www.w3.org/2000/svg"><defs
   id="defs12" /><sodipodi:namedview
   id="namedview12"
   pagecolor="#ffffff"
   bordercolor="#000000"
   borderopacity="0.25"
   inkscape:showpageshadow="2"
   inkscape:pageopacity="0.0"
   inkscape:pagecheckerboard="true"
   inkscape:deskcolor="#d1d1d1"
   inkscape:zoom="0.30674847"
   inkscape:cx="-557.46"
   inkscape:cy="-531.38"
   inkscape:window-width="1920"
   inkscape:window-height="1011"
   inkscape:window-x="0"
   inkscape:window-y="32"
   inkscape:window-maximized="1"
   inkscape:current-layer="layer" />
<style
   type="text/css"
   id="style1">
	.st0{fill:#000E2F;}
</style>
<g
   id="g12"
   style="fill:#ffffff;fill-opacity:1"
   transform="matrix(2.0453808,0,0,2.0453808,-31.089788,-597.85933)">
	<g
   id="g6"
   style="fill:#ffffff;fill-opacity:1">
		<path
   class="st0"
   d="m 387.7,307.9 h 8.2 v 14.7 H 411 v -14.7 h 8.2 V 345 H 411 V 330.1 H 395.9 V 345 h -8.2 z"
   id="path1"
   style="fill:#ffffff;fill-opacity:1" />
		<path
   class="st0"
   d="m 436,307.9 h 28 v 7.3 h -19.9 v 7.5 h 17.5 v 7.3 h -17.5 v 7.8 h 20.2 v 7.3 H 436 Z"
   id="path2"
   style="fill:#ffffff;fill-opacity:1" />
		<path
   class="st0"
   d="m 492.3,307.6 h 7.5 l 15.9,37.4 h -8.5 l -3.4,-8.3 h -15.7 l -3.4,8.3 h -8.3 z m 8.6,21.9 -4.9,-12 -4.9,12 z"
   id="path3"
   style="fill:#ffffff;fill-opacity:1" />
		<path
   class="st0"
   d="m 529.5,307.9 h 8.2 v 29.7 h 18.5 v 7.4 h -26.7 z"
   id="path4"
   style="fill:#ffffff;fill-opacity:1" />
		<path
   class="st0"
   d="m 573.7,315.4 h -11.3 v -7.5 h 30.8 v 7.5 H 581.9 V 345 h -8.2 z"
   id="path5"
   style="fill:#ffffff;fill-opacity:1" />
		<path
   class="st0"
   d="m 607.4,307.9 h 8.2 v 14.7 h 15.1 v -14.7 h 8.2 V 345 h -8.2 V 330.1 H 615.6 V 345 h -8.2 z"
   id="path6"
   style="fill:#ffffff;fill-opacity:1" />
	</g>
	<g
   id="g11"
   style="fill:#ffffff;fill-opacity:1">
		<g
   id="g10"
   style="fill:#ffffff;fill-opacity:1">
			<path
   class="st0"
   d="m 58.6,346 c -4.4,1.3 -8.9,2.9 -14.5,2.9 -5.5,0 -10,-1.6 -14.4,-2.9 V 294 H 15.2 v 59.2 c 7.9,4.6 17.9,7.4 28.9,7.4 10.9,0 21,-2.8 28.9,-7.4 V 294 H 58.6 Z"
   id="path7"
   style="fill:#ffffff;fill-opacity:1" />
			<path
   class="st0"
   d="m 126.2,306.8 v 9.6 h 14.5 v -16.8 c -7.9,-4.6 -17.9,-7.3 -28.9,-7.3 -10.9,0 -20.9,2.7 -28.8,7.3 v 53.8 c 7.9,4.5 17.9,7.2 28.8,7.2 11,0 21,-2.7 28.9,-7.2 V 333.8 H 126.2 V 346 c -4.3,1.3 -8.9,2 -14.4,2 -5.5,0 -10,-0.8 -14.3,-2 v -39.2 c 4.3,-1.3 8.8,-2.1 14.3,-2.1 5.5,0 10.1,0.8 14.4,2.1 z"
   id="path8"
   style="fill:#ffffff;fill-opacity:1" />
			<path
   class="st0"
   d="m 150.9,299.5 v 53.9 c 7.9,4.5 17.9,7.2 28.9,7.2 10.9,0 21,-2.7 28.9,-7.2 v -53.9 c -7.9,-4.5 -17.9,-7.2 -28.9,-7.2 -10.9,-0.1 -21,2.6 -28.9,7.2 z m 43.3,46.5 c -4.4,1.3 -9,2 -14.5,2 -5.5,0 -10,-0.8 -14.4,-2 v -39.2 c 4.4,-1.4 8.9,-2.1 14.4,-2.1 5.5,0 10,0.8 14.5,2.1 z"
   id="path9"
   style="fill:#ffffff;fill-opacity:1" />
			<polygon
   class="st0"
   points="260.3,358.7 275.7,358.7 275.7,294.1 262.6,294.1 262.6,339.9 262.2,339.9 233.5,294.1 218.1,294.1 218.1,358.7 231.2,358.7 231.2,312.8 231.6,312.8 "
   id="polygon9"
   style="fill:#ffffff;fill-opacity:1" />
			<polygon
   class="st0"
   points="327.2,358.7 342.6,358.7 342.6,294.1 329.5,294.1 329.5,339.9 329.2,339.9 300.5,294.1 285.1,294.1 285.1,358.7 298.1,358.7 298.1,312.8 298.5,312.8 "
   id="polygon10"
   style="fill:#ffffff;fill-opacity:1" />
		</g>
	</g>
</g>
</svg>
